<svg width="37" height="37" viewBox="0 0 37 37" fill="none" xmlns="http://www.w3.org/2000/svg">
<g clip-path="url(#clip0_31_16)">
<path d="M0 18.5C0 13.0796 0 7.77707 0 2.35669C0 0.824841 0.824841 0 2.35669 0C13.0796 0 23.8025 0 34.6433 0C36.1752 0 37 0.824841 37 2.35669C37 13.0796 37 23.9204 37 34.6433C37 36.1752 36.1752 37 34.6433 37C23.9204 37 13.0796 37 2.35669 37C0.824841 37 0 36.1752 0 34.6433C0 29.2229 0 23.9204 0 18.5ZM32.8758 4.1242C23.3312 4.1242 13.7866 4.1242 4.24204 4.1242C4.24204 13.6688 4.24204 23.2134 4.24204 32.758C13.7866 32.758 23.3312 32.758 32.8758 32.758C32.8758 23.2134 32.8758 13.6688 32.8758 4.1242Z" fill="white"/>
<path d="M29.6943 29.6944C28.3981 29.6944 26.9841 29.6944 25.6879 29.6944C25.6879 29.4587 25.6879 29.3409 25.6879 29.1052C25.6879 26.395 25.6879 23.8026 25.6879 21.0925C25.6879 19.3249 24.6274 17.9109 23.0955 17.4396C20.8567 16.8504 18.5 18.5001 18.5 20.8568C18.5 23.567 18.5 26.2772 18.5 28.9874C18.5 29.1052 18.5 29.3409 18.5 29.5765C17.086 29.5765 15.7898 29.5765 14.3758 29.5765C14.3758 24.5096 14.3758 19.4428 14.3758 14.2581C15.672 14.2581 17.086 14.2581 18.5 14.2581C18.5 14.4937 18.5 14.7294 18.5 15.0829C18.6178 14.9651 18.7357 14.9651 18.7357 14.9651C21.7994 12.0192 25.9236 13.4332 27.8089 15.6721C28.9873 16.9682 29.6943 18.6179 29.6943 20.3854C29.8121 23.4491 29.6943 26.5128 29.6943 29.5765C29.8121 29.5765 29.6943 29.6944 29.6943 29.6944Z" fill="white"/>
<path d="M7.1879 14.3757C8.36624 14.3757 9.54459 14.3757 10.7229 14.3757C10.8408 14.3757 10.9586 14.3757 11.1943 14.3757C11.1943 19.4426 11.1943 24.6273 11.1943 29.6942C9.89809 29.6942 8.48408 29.6942 7.1879 29.6942C7.1879 24.6273 7.1879 19.5604 7.1879 14.3757Z" fill="white"/>
<path d="M6.12738 9.19114C6.12738 7.54145 7.54139 6.12744 9.30891 6.12744C10.9586 6.12744 12.3726 7.54145 12.3726 9.30897C12.3726 10.9587 10.9586 12.3727 9.30891 12.3727C7.54139 12.2548 6.12738 10.9587 6.12738 9.19114Z" fill="white"/>
</g>
<defs>
<clipPath id="clip0_31_16">
<rect width="37" height="37" fill="white"/>
</clipPath>
</defs>
</svg>
