<svg width="43" height="42" viewBox="0 0 43 42" fill="none" xmlns="http://www.w3.org/2000/svg">
<g clip-path="url(#clip0_31_13)">
<path d="M20.6095 0C21.5 0 22.3905 0 23.1539 0C23.2811 0 23.4083 0 23.5355 0.121733C27.0976 0.365198 30.5326 1.46079 33.4586 3.40851C38.4201 6.57356 41.6006 11.0777 42.6184 16.6774C42.7456 17.4078 42.8728 18.1382 43 18.8685C43 19.7207 43 20.5728 43 21.3032C43 21.5467 42.8728 21.7901 42.8728 22.0336C42.4911 25.6856 41.2189 28.9723 38.929 31.7722C34.858 36.885 29.5148 39.6848 22.8994 40.05C19.2101 40.2935 15.6479 39.5631 12.3402 37.8588C12.0858 37.7371 11.7041 37.7371 11.4497 37.8588C8.0148 38.9544 4.45267 39.9283 1.01776 41.0239C0.763319 41.1456 0.508882 41.1456 0.254444 40.9021C5.84871e-06 40.6587 0.127225 40.4152 0.254444 40.1717C1.39941 37.0067 2.54438 33.8417 3.68936 30.6766C3.81657 30.3114 3.81657 30.0679 3.56214 29.8245C0.381663 24.2248 -0.127213 18.3816 2.54438 12.5385C5.47042 5.84316 10.9408 1.82599 18.3195 0.365198C18.9556 0.121733 19.8462 0.121733 20.6095 0ZM6.61539 34.9372C6.74261 34.9372 6.86983 34.8155 6.99705 34.8155C8.65089 34.3286 10.3047 33.8417 11.9586 33.3547C12.3402 33.233 12.5947 33.233 12.8491 33.4765C13.4852 33.8417 13.9941 34.0851 14.6302 34.4503C18.574 36.2763 22.7722 36.5198 26.9704 35.3024C29.8965 34.4503 32.4408 32.8678 34.4763 30.5549C36.8935 27.9985 38.1657 24.9552 38.5473 21.6684C38.929 18.1381 38.0385 14.7296 36.003 11.6863C33.713 8.27781 30.4053 5.9649 26.3343 4.8693C23.1539 4.01717 20.1006 4.01717 16.9201 4.99103C13.9941 5.84316 11.4497 7.30395 9.28699 9.61687C6.86983 12.1733 5.47042 15.2166 5.21598 18.6251C4.83433 22.3988 5.85208 25.929 8.14202 29.0941C8.39646 29.4593 8.39646 29.8245 8.26924 30.3114C7.76036 31.7722 7.25149 33.3547 6.61539 34.9372Z" fill="white"/>
<path d="M27.6065 29.7027C26.4616 29.7027 25.1894 29.3375 24.0444 29.0941C19.3373 27.755 16.0296 24.7117 13.358 21.0597C12.4675 19.7207 11.7042 18.2599 11.4497 16.6774C11.1953 15.0948 11.4497 13.634 12.3402 12.1733C12.9763 11.3211 13.8669 10.8342 14.8846 10.7125C15.1391 10.7125 15.5207 10.5907 15.9024 10.5907C16.5385 10.469 17.1746 10.7125 17.429 11.3211C18.0651 12.6602 18.7012 14.121 19.3373 15.46C19.5917 16.0687 19.2101 16.6774 18.9556 17.0426C18.7012 17.4078 18.3195 17.773 17.9379 18.2599C17.8107 18.3816 17.8107 18.6251 17.9379 18.6251C19.5917 20.938 21.6272 22.8857 24.426 23.9813C24.6805 24.103 24.9349 24.103 25.0621 23.8596C25.4438 23.3727 25.9527 22.764 26.3343 22.2771C26.9704 21.5467 27.3521 21.4249 28.2426 21.7901C29.0059 22.1553 29.7692 22.5205 30.6598 22.8857C31.1687 23.1292 31.8047 23.3727 32.3136 23.7378C32.8225 23.9813 32.9497 24.3465 32.9497 24.8334C33.0769 27.8768 30.5326 29.4593 28.2426 29.581C28.1154 29.7027 27.861 29.7027 27.6065 29.7027Z" fill="white"/>
</g>
<defs>
<clipPath id="clip0_31_13">
<rect width="43" height="41.1456" fill="white"/>
</clipPath>
</defs>
</svg>
