<svg width="38" height="38" viewBox="0 0 38 38" fill="none" xmlns="http://www.w3.org/2000/svg">
<g clip-path="url(#clip0_31_7)">
<path d="M38 19.0554C38 21.3819 38 23.7085 38 26.035C38 32.0175 34.0117 36.7813 28.1399 37.8892C27.4752 38 26.8105 38 26.2566 38C21.4927 38 16.6181 38 11.8542 38C5.98251 38 1.10787 33.7901 0.221574 28.0292C0 27.3644 0 26.6997 0 26.035C0 21.3819 0 16.6181 0 11.965C0 5.98251 3.98834 1.21866 9.86006 0.221574C10.5248 0 11.1895 0 11.8542 0C16.6181 0 21.3819 0 26.2566 0C32.793 0 38 5.207 38.1108 11.7434C38 14.1808 38 16.6181 38 19.0554ZM18.9446 33.7901C21.3819 33.7901 23.7085 33.7901 26.1458 33.7901C30.4665 33.7901 33.7901 30.5773 33.7901 26.2566C33.7901 21.3819 33.7901 16.5073 33.7901 11.7434C33.7901 7.53353 30.4665 4.3207 26.2566 4.20991C21.3819 4.20991 16.6181 4.20991 11.7434 4.20991C7.53353 4.20991 4.3207 7.53353 4.20991 11.7434C4.20991 16.5073 4.20991 21.3819 4.20991 26.1458C4.20991 30.2449 7.20117 33.4577 11.1895 33.6793C13.8484 33.9009 16.3965 33.7901 18.9446 33.7901Z" fill="white"/>
<path d="M18.9446 28.6939C13.6268 28.6939 9.19531 24.2624 9.19531 18.9446C9.19531 13.6269 13.6268 9.30615 18.9446 9.30615C24.2624 9.30615 28.6939 13.7376 28.6939 19.0554C28.6939 24.3732 24.3732 28.8047 18.9446 28.6939ZM24.9271 19.0554C24.9271 15.7318 22.2682 13.1837 19.0554 13.1837C15.8425 13.1837 13.1837 15.8426 13.1837 19.0554C13.1837 22.379 15.8425 24.9271 19.0554 24.9271C22.2682 24.9271 24.9271 22.2683 24.9271 19.0554Z" fill="white"/>
<path d="M29.137 7.09033C30.0233 7.09033 30.7988 7.86584 30.7988 8.75214C30.7988 9.63844 30.1341 10.4139 29.2478 10.4139C28.3615 10.4139 27.586 9.74922 27.586 8.75214C27.586 7.86584 28.2507 7.09033 29.137 7.09033Z" fill="white"/>
</g>
<defs>
<clipPath id="clip0_31_7">
<rect width="38" height="38" fill="white"/>
</clipPath>
</defs>
</svg>
