<svg width="267" height="250" viewBox="0 0 267 250" fill="none" xmlns="http://www.w3.org/2000/svg">
<g clip-path="url(#clip0_150_312)">
<path d="M4.87947 153.696C6.82488 151.717 9.05732 149.962 11.4492 148.525C12.6611 147.823 13.9049 147.217 15.2125 146.642C16.7752 145.94 17.413 145.174 17.7638 143.482C18.3698 140.801 18.9757 138.311 20.5066 135.981C21.9736 133.746 23.8871 131.831 26.0877 130.299C30.0104 127.617 34.9855 126.309 39.6737 127.043C39.5142 122.606 41.332 118.169 44.904 115.424C46.8813 113.892 49.2413 112.966 51.7288 112.647C54.6629 112.296 57.0867 113.126 59.8294 114.019C62.9548 112.583 67.8981 112.583 76.9873 118.041C79.5068 119.574 82.0901 121.01 84.5457 122.606C86.5549 123.915 88.6598 125.351 89.9674 127.426C90.6371 128.511 90.9879 129.692 90.9879 130.873C93.1247 136.587 85.056 139.651 81.229 141.854C75.5522 145.142 70.003 148.685 64.677 152.515C59.4148 156.314 54.5353 160.527 49.4645 164.549C44.5531 168.444 37.6645 174.923 31.4455 175.849C25.3223 176.743 19.773 174.093 17.1898 169.114C12.5973 168.571 4.94325 168.539 1.65837 164.805C-2.32813 160.272 1.5308 157.048 4.84757 153.664L4.87947 153.696Z" fill="white"/>
<path d="M11.8 168.507C14.8935 164.964 17.2536 156.601 28.1287 152.643C33.5185 145.238 40.2796 142.333 44.9996 142.492C49.7515 135.853 54.3759 132.821 63.1462 132.214C67.7067 131.895 72.3949 129.66 75.1695 125.734C76.9873 123.181 77.2106 120.435 76.5408 117.754C76.7003 117.85 76.8916 117.946 77.0511 118.041C79.5706 119.574 82.1538 121.01 84.6095 122.606C86.6187 123.915 88.7236 125.351 90.0311 127.426C90.7009 128.511 91.0517 129.692 91.0517 130.873C93.1885 136.587 85.1198 139.651 81.2927 141.854C75.616 145.142 70.0667 148.685 64.7408 152.515C59.4786 156.314 54.5991 160.527 49.5283 164.549C44.6169 168.444 37.7282 174.923 31.5093 175.849C25.386 176.743 19.8368 174.094 17.2536 169.114C15.659 168.922 13.7135 168.795 11.7043 168.539C11.7043 168.539 11.7681 168.507 11.8 168.476V168.507Z" fill="#E9F1FF"/>
<path d="M15.4038 167.007C17.1578 166.305 18.4973 166.018 20.06 167.23C21.5908 168.38 22.9303 169.816 24.7162 170.582C26.6617 171.412 28.9579 171.604 31.0628 171.38C35.1449 170.965 38.7806 169.146 41.7466 166.369C43.1498 165.06 44.585 163.56 45.5098 161.868C45.9244 161.07 46.2753 160.176 47.0407 159.665C47.7423 159.155 48.6034 158.867 49.4007 158.58C51.0591 157.942 52.6537 157.303 54.0569 156.186C55.7791 154.782 57.5331 153.473 59.4148 152.292C63.0505 150.025 67.0689 148.366 70.5451 145.844C73.7981 143.514 76.7959 140.832 80.2722 138.789C82.8554 137.289 85.917 135.789 87.5116 133.108C89.3614 130.011 87.5116 126.628 86.1722 123.691C87.6711 124.745 89.0744 125.926 90.0311 127.49C90.7008 128.575 91.0517 129.756 91.0517 130.937C93.1884 136.651 85.1197 139.715 81.2927 141.918C75.6159 145.205 70.0667 148.749 64.7407 152.579C59.4786 156.378 54.5991 160.591 49.5282 164.613C44.6169 168.507 37.7282 174.987 31.5092 175.913C25.386 176.807 19.8368 174.157 17.2535 169.178C15.7865 168.986 14.0005 168.858 12.1189 168.667C13.1713 168.028 14.3194 167.454 15.4038 167.039V167.007Z" fill="#D4E6FF"/>
<path d="M104.064 139.045L34.8261 179.041L27.2039 162.666L96.4414 122.67L104.064 139.045Z" fill="#202235"/>
<path d="M105.881 137.864L36.6439 177.892L29.0217 161.517L98.2593 121.521L105.881 137.864Z" fill="#2E3049"/>
<path d="M71.6613 149.866L266.649 37.2192L263.97 33.1653L69.2375 145.684L71.6613 149.866Z" fill="#FF9D00"/>
<path d="M141.473 104.667C141.473 104.667 137.359 105.688 134.935 105.944C131.905 106.231 128.302 107.54 127.058 109.391C125.814 111.21 126.292 112.679 126.292 112.679C126.292 112.679 131.65 110.061 130.247 112.87C129.928 113.477 126.26 118.361 126.26 118.361C126.26 118.361 130.311 120.212 133.978 119.159C137.678 118.073 143.801 111.785 143.801 111.785L141.473 104.699V104.667Z" fill="#FFB9A4"/>
<path d="M174.003 103.23C172.823 100.932 180.445 99.0168 180.445 99.0168L182.422 104.411C182.422 104.411 176.235 107.635 174.003 103.23Z" fill="#7A6557"/>
<path d="M200.473 33.1333C204.428 32.2714 211.444 33.4844 215.08 40.9537C218.301 47.5932 218.141 56.5308 215.399 60.8082C212.656 65.0855 198.719 71.5334 194.063 73.5444C189.375 75.5554 188.035 76.4811 187.238 76.896C186.441 77.311 176.65 73.4805 174.003 71.2461C171.324 69.0117 169.379 64.6705 167.943 62.2127C167.943 59.5314 170.782 55.3179 173.748 53.3388C178.532 54.6795 185.643 62.3723 185.643 62.3723C185.643 62.3723 192.341 54.5199 192.054 49.9553C191.767 45.3907 195.402 34.2185 200.473 33.1333Z" fill="#E9F1FF"/>
<path d="M192.341 113.221C194.733 111.147 198.783 110.125 201.621 108.816C205.576 107.029 209.499 105.082 213.708 104.06C213.613 103.965 213.517 103.837 213.421 103.741C212.975 103.198 216.292 101.954 216.961 102.4C226.752 109.327 227.964 118.329 222.192 130.586C227.486 143.322 222.096 167.773 217.854 174.413C217.854 174.413 225.636 179.552 228.251 185.84C229.304 188.33 230.101 190.82 230.803 193.214C233.035 200.779 216.929 213.324 211.476 204.035C208.956 205.024 207.617 201.226 206.341 199.311C201.781 192.384 201.047 186.894 201.047 181.595C198.496 181.18 196.71 178.275 198.336 175.051C193.521 165.73 192.66 144.12 191.48 133.682C190.874 128.415 187.621 117.307 192.341 113.189V113.221Z" fill="#7A6557"/>
<path d="M167.943 169.752C168.23 163.751 171.228 140.354 172.185 134.129C172.982 128.99 174.736 116.605 176.905 111.881C175.725 111.242 188.259 115.584 192.596 114.722C196.295 113.987 206.979 102.56 207.011 103.007C216.674 114.498 217.248 130.395 207.011 137.609C206.915 137.672 201.302 163.656 185.229 178.594C187.142 183.574 190.874 184.883 193.489 193.756C194.573 197.459 197.571 199.534 196.104 203.492C194.924 205.12 193.935 210.483 192.149 211.408C190.268 212.398 187.876 212.43 185.803 212.366C183.22 212.27 180.668 211.759 178.213 210.898C176.969 210.451 174.386 207.418 174.003 207.131C172.918 204.386 171.451 202.854 170.59 200.109C168.613 193.98 165.424 184.021 167.943 177.605C165.52 175.785 165.52 171.572 167.943 169.784V169.752Z" fill="#8B786A"/>
<path d="M178.659 7.21409C182.964 4.75623 188.003 5.52232 192.117 8.45899C196.008 11.268 197.475 14.5238 197.38 17.8755C197.38 18.9927 196.71 23.7488 196.072 25.0576C194.222 29.0157 189.534 33.1972 187.334 35.5593C184.559 38.5599 180.445 39.7728 176.267 37.698C170.622 34.889 171.707 27.0366 171.707 21.6421C171.707 15.4815 173.014 10.4061 178.659 7.18217V7.21409Z" fill="#FFC9B6"/>
<path d="M186.441 43.252C198.209 37.5064 201.876 31.5053 209.977 38.6555C215.016 43.0924 215.877 61.2232 215.207 68.7883C214.538 76.3215 215.718 90.0153 217.312 93.3988C219.13 97.2931 221.522 99.1764 219.959 101.985C222.542 103.039 178.531 116.062 178.117 106.55C177.957 102.783 169.602 76.513 168.964 64.8301C168.326 53.1473 172.727 49.8914 186.409 43.2201L186.441 43.252Z" fill="white"/>
<path d="M193.744 22.2805C193.744 22.2805 199.006 26.8451 197.38 29.6541C195.434 33.0377 200.378 39.5175 200.378 39.5175C200.378 39.5175 204.332 45.4547 197.762 48.2637C191.193 51.0726 183.411 45.2951 183.411 45.2951C183.411 45.2951 183.379 41.6881 180.86 35.4955C179.042 30.9948 193.712 22.2805 193.712 22.2805H193.744Z" fill="#FFC9B6"/>
<path d="M179.265 2.23447C185.643 -1.56405 194.19 -0.51068 199.229 5.33074C201.876 8.39509 203.12 12.4171 202.674 16.439C202.004 22.5358 196.072 27.7388 193.68 35.6551C188.769 35.1124 187.206 31.2181 184.687 28.4411C184.272 27.9942 181.402 25.9832 179.042 22.6316C174.481 22.2804 172.057 19.3757 171.547 16.7901C167.784 14.3004 166.094 10.438 165.232 6.12875C170.463 2.42599 172.695 -1.0214 179.233 2.26639L179.265 2.23447Z" fill="#2E3049"/>
<path d="M204.236 103.007C204.236 103.007 196.391 111.051 188.992 111.657C181.593 112.264 178.755 111.625 178.755 111.625C178.755 111.625 183.602 107.923 189.183 106.869C194.764 105.816 204.236 103.007 204.236 103.007Z" fill="#646ED6"/>
<path d="M215.175 110.412C215.175 110.412 211.061 117.148 197.411 118.808C183.762 120.467 175.725 115.488 175.725 115.488L176.267 110.987C176.267 110.987 192.755 114.849 202.004 111.115C211.253 107.38 214.25 106.582 214.25 106.582L215.175 110.412Z" fill="#7A6557"/>
<path d="M217.472 64.0959L221.075 76.2576C221.075 76.2576 221.203 89.5045 220.501 93.9734C221.203 95.6652 222.383 96.0482 221.075 98.0273C223.754 98.123 222.861 100.772 221.586 102.911C218.971 107.284 215.143 109.55 210.838 111.817C206.533 114.115 192.373 117.562 186.919 116.222C181.466 114.881 174.8 113.285 175.278 110.7C175.757 108.114 175.693 107.22 175.693 107.22L174.035 103.23C174.035 103.23 179.839 105.624 186.919 102.241C191.224 100.198 199.038 90.3983 196.933 74.2785C205.225 71.9164 217.503 64.0959 217.503 64.0959H217.472Z" fill="#8B786A"/>
<path d="M201.526 75.9704C201.079 75.6831 198.623 64.0322 194.414 55.8287C191.001 49.2211 184.814 44.8161 182.454 45.2311C179.137 45.7738 178.181 47.4975 178.181 47.4975C178.181 47.4975 184.431 48.8381 188.259 53.5942C192.054 58.3504 197.156 74.2467 197.22 77.343C197.284 80.4392 201.558 75.9704 201.558 75.9704H201.526Z" fill="#8B786A"/>
<path d="M202.355 39.3578C203.407 40.2516 205.735 41.6242 208.829 48.8381C210.806 53.4666 214.952 67.8946 214.952 67.8946L217.918 65.8198C217.918 65.8198 215.271 55.2861 212.273 48.2636C209.275 41.273 206.756 38.879 204.779 37.6341C201.557 35.6231 199.676 37.5703 199.006 38.081C199.261 38.7832 202.355 39.3259 202.355 39.3259V39.3578Z" fill="#8B786A"/>
<path d="M199.644 106.454C199.644 106.454 195.115 108.912 190.969 108.753C186.887 108.593 182.901 106.582 182.901 106.582C182.901 106.582 188.035 105.848 190.395 106.231C192.755 106.614 199.612 106.454 199.612 106.454H199.644Z" fill="#7A6557"/>
<path d="M201.143 37.6022C203.631 38.496 206.82 43.5713 200.888 48.1998C194.956 52.8601 188.673 48.9339 186.281 47.7529C183.889 46.5718 180.7 46.125 180.7 46.125C180.7 46.125 181.816 42.486 187.653 42.5499C191.193 42.5499 196.519 41.5284 198.049 39.3578C199.134 37.847 200.154 37.2617 201.111 37.6022H201.143Z" fill="#E9F1FF"/>
<path d="M136.753 107.189C137.805 106.774 141.76 104.124 144.949 101.06C147.532 98.5701 151.136 96.3995 153.592 95.0907C153.592 95.0907 153.592 95.0588 153.592 95.0269H153.688C153.688 95.0269 166.7 68.4373 167.274 65.4048C168.677 58.2547 182.263 70.544 182.263 70.544C182.263 70.544 171.324 86.0254 169.187 93.1755C167.05 100.294 163.765 102.752 162.458 105.018C161.405 106.806 160.831 106.837 159.524 107.667C158.79 108.146 156.367 109.551 150.179 110.732C144.758 111.753 141.441 112.647 138.953 112.647C138.666 112.136 138.379 111.594 138.156 111.083C137.582 109.838 137.136 108.561 136.817 107.22L136.753 107.189Z" fill="#FFB9A4"/>
<path d="M156.111 85.1634C156.781 80.9818 160.863 69.2351 162.458 66.4261C161.629 61.6381 165.551 57.5842 166.094 56.8181C171.611 49.0296 175.789 48.8061 180.7 51.3917C185.101 53.7219 187.174 66.7453 186.664 74.2466C186.122 82.3544 182.422 90.3026 178.149 84.3654C176.299 86.7594 174.768 94.7076 170.782 97.1016C163.734 92.0582 156.175 87.3659 156.111 85.1315V85.1634Z" fill="#E9F1FF"/>
<path d="M196.104 203.46C196.104 203.46 199.038 214.058 199.867 221.272C200.696 228.486 200.76 229.348 202.164 234.806C203.567 240.264 205.48 245.18 204.268 247.127C203.025 249.074 199.899 250.223 195.402 249.936C190.938 249.649 189.789 246.616 189.789 246.616C189.789 246.616 185.994 247.638 180.7 244.733C175.374 241.86 167.433 236.977 168.836 231.646C170.24 226.315 173.237 224.879 177.128 225.804C178.946 226.219 182.486 228.933 182.486 228.933L174.003 207.099C174.003 207.099 178.723 209.908 188.354 207.163C193.808 205.631 196.104 203.46 196.104 203.46Z" fill="#2E3049"/>
<path d="M230.802 193.214C230.93 193.693 237.149 208.599 239.732 212.366C242.315 216.101 244.325 218.846 245.058 221.591C245.792 224.336 245.345 224.145 243.336 226.762C241.327 229.38 238.967 231.263 238.967 231.263H237.308C237.308 231.263 233.194 234.87 231.026 238.477C228.857 242.084 225.253 241.286 220.501 239.115C215.749 236.945 210.232 234.008 212.847 230.114C215.462 226.219 222.192 226.762 222.192 226.762L224.488 220.378L211.316 204.131C211.316 204.131 215.143 198.417 220.31 195.799C225.476 193.182 230.802 193.214 230.802 193.214Z" fill="#2E3049"/>
<path d="M69.7158 148.27C70.4174 149.387 71.5336 149.994 72.1396 149.579C72.7774 149.164 72.7137 147.951 71.9801 146.802C71.2785 145.684 70.1623 145.078 69.5563 145.493C68.9185 145.908 68.9823 147.121 69.7158 148.27Z" fill="#FF9D00"/>
<path d="M264.098 35.9423C264.799 37.0595 265.916 37.666 266.522 37.2511C267.16 36.8361 267.096 35.6231 266.362 34.474C265.661 33.3568 264.544 32.7503 263.938 33.1653C263.301 33.5802 263.364 34.7932 264.098 35.9423Z" fill="#FFBE5F"/>
<path d="M67.4834 117.403L67.5791 117.435C67.5472 117.435 67.5153 117.435 67.5791 117.435C67.5791 117.435 67.611 117.435 67.6429 117.435C67.6748 117.435 67.7385 117.435 67.7704 117.499C67.8342 117.531 67.898 117.562 67.9618 117.626C68.1212 117.722 68.2488 117.85 68.3764 117.977C68.504 118.105 68.6634 118.233 68.7591 118.392C68.8548 118.52 68.9185 118.648 69.0142 118.807C69.1737 119.063 69.078 119.446 68.791 119.605C68.5039 119.765 68.185 119.669 67.9937 119.382C67.898 119.254 67.8342 119.127 67.7385 119.031C67.6429 118.903 67.611 118.775 67.5153 118.648C67.4515 118.52 67.3558 118.424 67.2921 118.297C67.2602 118.233 67.2283 118.169 67.1964 118.105C67.1964 118.041 67.1645 118.009 67.1326 117.945C67.1326 117.977 67.1326 117.818 67.1326 117.882C67.1326 117.882 67.1326 117.85 67.1326 117.818C67.0369 117.626 67.2921 117.403 67.4834 117.467V117.403Z" fill="#E9F1FF"/>
<path d="M64.9002 125.479C64.9002 125.479 65.0916 125.447 65.1872 125.415C65.2829 125.415 65.3786 125.415 65.4743 125.415C65.4743 125.415 65.5061 125.415 65.538 125.415C65.6337 125.415 65.7294 125.415 65.7932 125.351C65.857 125.351 65.8889 125.351 65.9526 125.319C65.9526 125.319 66.1759 125.319 66.0802 125.319C66.2716 125.319 66.431 125.224 66.6224 125.192C66.718 125.192 66.7818 125.128 66.8775 125.096C66.9732 125.064 67.0689 124.968 67.1326 124.904C67.1964 124.841 67.2921 124.904 67.2602 125C67.1964 125.096 67.1645 125.192 67.1008 125.287C67.0689 125.383 67.0051 125.479 66.9732 125.575C66.8775 125.766 66.7181 125.958 66.5586 126.117C66.3991 126.309 66.1759 126.437 65.9526 126.532C65.8251 126.596 65.6656 126.66 65.538 126.724C65.4105 126.756 65.2191 126.756 65.0597 126.788C64.7407 126.788 64.4856 126.532 64.4537 126.245C64.4218 125.958 64.5813 125.607 64.9002 125.543V125.479Z" fill="#E9F1FF"/>
<path d="M46.8493 119.925C47.2639 119.446 47.9336 119.222 48.5396 119.19C48.8266 119.19 49.1136 119.19 49.4007 119.254C49.6877 119.318 49.9428 119.414 50.198 119.573C50.3893 119.701 50.3574 120.084 50.0704 120.052C49.8471 120.052 49.592 120.052 49.3688 120.052C49.305 120.052 49.2412 120.052 49.1774 120.052C49.1774 120.052 49.1136 120.052 49.0817 120.052C48.9542 120.052 48.8266 120.084 48.699 120.116C48.5715 120.116 48.4758 120.18 48.3482 120.212C48.2844 120.212 48.2207 120.244 48.1888 120.276C48.1888 120.276 48.1888 120.276 48.1569 120.276H48.125C48.0293 120.34 47.9017 120.371 47.8061 120.435C47.7423 120.499 47.6466 120.531 47.5509 120.563C47.519 120.563 47.4871 120.563 47.4552 120.595C46.9769 120.85 46.5304 120.276 46.8812 119.829L46.8493 119.925Z" fill="#E9F1FF"/>
<path d="M46.4986 124.298C46.4986 124.298 46.5624 124.298 46.5943 124.298C46.5943 124.298 46.6261 124.298 46.658 124.298C46.658 124.298 46.4986 124.298 46.5943 124.298C46.6899 124.298 46.8175 124.298 46.9132 124.298C46.977 124.298 47.0407 124.362 47.1045 124.362C47.1364 124.362 47.1683 124.394 47.2321 124.425C47.264 124.425 47.2959 124.425 47.3597 124.457C47.4553 124.457 47.551 124.489 47.6148 124.521C47.6786 124.521 47.7743 124.553 47.838 124.585C47.838 124.585 47.838 124.585 47.8699 124.585C47.9018 124.585 47.9656 124.585 47.9975 124.585C48.1251 124.585 48.2207 124.585 48.3483 124.585C48.3802 124.585 48.4121 124.585 48.444 124.617C48.5078 124.617 48.5716 124.617 48.6353 124.617C48.8905 124.617 49.018 124.936 48.8267 125.128C48.7629 125.192 48.731 125.223 48.6672 125.287C48.6991 125.223 48.731 125.192 48.7629 125.128C48.6991 125.415 48.3802 125.575 48.0932 125.638C47.8699 125.702 47.6148 125.734 47.3916 125.702C47.1683 125.67 46.9132 125.638 46.7218 125.543C46.4986 125.447 46.3072 125.383 46.1797 125.16C46.1159 125.064 46.084 124.936 46.0521 124.809C45.9883 124.521 46.1797 124.266 46.4667 124.266L46.4986 124.298Z" fill="#E9F1FF"/>
<path d="M41.3958 136.108C41.4596 135.885 41.5553 135.629 41.6829 135.438C41.8104 135.246 41.938 135.055 42.0975 134.863C42.1612 134.768 42.2569 134.704 42.3207 134.64C42.3207 134.64 42.3845 134.608 42.4164 134.576C42.4164 134.576 42.4483 134.576 42.4802 134.544C42.5121 134.544 42.544 134.48 42.5758 134.448C42.6715 134.384 42.7353 134.353 42.8629 134.353C42.8629 134.353 42.8948 134.353 42.9267 134.353C42.9267 134.353 42.9904 134.353 43.0223 134.321C43.0542 134.321 43.118 134.289 43.1499 134.257C43.3094 134.193 43.4369 134.384 43.3413 134.512C43.3413 134.576 43.2775 134.64 43.2456 134.704C43.2456 134.672 43.2456 134.672 43.2456 134.704V134.768C43.2456 134.863 43.2137 134.927 43.1818 135.023C43.2137 134.927 43.1499 135.119 43.1818 135.023V135.087C43.1818 135.119 43.1818 135.183 43.1818 135.214C43.0861 135.47 43.0223 135.725 42.9904 136.012C42.9904 135.949 42.9904 135.885 42.9904 135.821C42.9904 135.949 42.9585 136.108 42.9267 136.236C42.9267 136.236 42.9267 136.3 42.9267 136.332C42.9267 136.491 42.8629 136.651 42.7672 136.779C42.6715 136.906 42.544 137.002 42.3526 137.066C42.225 137.098 42.0656 137.098 41.938 137.066C41.8104 137.034 41.7148 136.938 41.5872 136.874C41.3639 136.715 41.3002 136.364 41.3958 136.108Z" fill="#E9F1FF"/>
<path d="M24.8121 138.662C24.8121 138.662 24.8759 138.63 24.9078 138.598C24.9078 138.598 24.8759 138.662 24.844 138.694C24.8759 138.598 24.9396 138.534 25.0353 138.47C25.131 138.406 25.2267 138.343 25.3542 138.311C25.3542 138.311 25.4499 138.247 25.5137 138.247C25.7051 138.247 25.8645 138.247 26.0559 138.247C26.1197 138.247 26.1834 138.247 26.2472 138.247C26.1197 138.247 26.1515 138.247 26.311 138.247C26.3429 138.247 26.3748 138.247 26.4386 138.247C26.5343 138.247 26.6299 138.279 26.6937 138.311C27.1721 138.438 27.6824 138.694 27.9375 139.141C28.097 139.396 28.0651 139.811 27.8099 140.002C27.5867 140.226 27.2359 140.29 26.9488 140.13C26.7575 140.002 26.598 139.875 26.4386 139.715C26.3748 139.651 26.311 139.619 26.2472 139.556C26.2472 139.556 26.2153 139.524 26.1834 139.492C26.1834 139.492 26.1834 139.492 26.1515 139.492C26.024 139.396 25.8645 139.3 25.7369 139.236C25.7051 139.236 25.6732 139.236 25.6094 139.204C25.5137 139.204 25.418 139.141 25.3542 139.141C25.3224 139.141 25.2905 139.077 25.2586 139.077C25.131 139.013 25.0034 138.981 24.9078 138.853L25.0353 138.981C25.0353 138.981 24.9078 138.917 24.8759 138.853C24.8759 138.853 24.8759 138.853 24.8759 138.821C24.8759 138.821 24.8759 138.821 24.844 138.821C24.7483 138.821 24.7483 138.694 24.844 138.63L24.8121 138.662Z" fill="#E9F1FF"/>
<path d="M25.0671 138.438C25.0352 138.438 25.0033 138.47 24.9714 138.534L25.099 138.406L25.0671 138.438Z" fill="#E9F1FF"/>
<path d="M30.2974 132.693C30.393 132.533 30.5844 132.374 30.7438 132.278C30.9671 132.118 31.1903 131.991 31.4136 131.895C31.5411 131.831 31.7006 131.767 31.8601 131.735C31.9238 131.735 31.9876 131.703 32.0514 131.671C32.1152 131.671 32.1471 131.671 32.2109 131.671C32.2747 131.671 32.1152 131.671 32.2428 131.671C32.3384 131.671 32.4022 131.671 32.4979 131.671C32.5617 131.671 32.6255 131.671 32.6893 131.671C32.7849 131.671 32.8487 131.671 32.9444 131.671C33.0082 131.671 33.072 131.703 33.1357 131.735C33.2633 131.735 33.2314 131.959 33.1357 131.991C33.072 131.991 33.0401 132.054 32.9763 132.086C32.9444 132.086 32.8806 132.118 32.8487 132.15C32.8168 132.15 32.753 132.214 32.6893 132.246C32.6255 132.246 32.5936 132.31 32.5298 132.31C32.4979 132.31 32.4341 132.374 32.4022 132.406C32.3384 132.406 32.3065 132.469 32.2428 132.501C32.1471 132.565 32.0195 132.629 31.9238 132.693C31.9238 132.693 31.892 132.693 31.892 132.725C31.8601 132.757 31.7963 132.789 31.7644 132.852C31.6687 132.948 31.6049 133.012 31.5092 133.108C31.4455 133.204 31.3498 133.299 31.286 133.363C31.1903 133.459 31.0628 133.523 30.9352 133.555C30.9352 133.555 30.9033 133.555 30.8714 133.555C30.7438 133.619 30.5844 133.65 30.4568 133.555C30.3292 133.491 30.2336 133.331 30.2655 133.204C30.2655 133.012 30.2974 132.821 30.393 132.661L30.2974 132.693Z" fill="#E9F1FF"/>
<path d="M17.5406 152.611C17.5406 152.515 17.5406 152.388 17.6363 152.292C17.6682 152.228 17.732 152.196 17.7639 152.132C17.7639 152.132 17.7958 152.069 17.8277 152.069C17.8596 152.037 17.8915 151.973 17.9552 151.909C18.0509 151.781 18.1466 151.654 18.2423 151.526C18.2423 151.526 18.2742 151.494 18.306 151.462C18.3379 151.43 18.306 151.43 18.306 151.462C18.3379 151.398 18.4017 151.334 18.4336 151.302C18.5931 151.079 18.7525 150.856 18.912 150.632C19.0396 150.472 19.199 150.249 19.3266 150.058C19.5179 149.802 19.9007 149.962 19.8369 150.281C19.7731 150.536 19.7412 150.792 19.6455 151.015C19.5817 151.302 19.4542 151.558 19.3266 151.813C19.2309 152.037 19.1033 152.292 18.9758 152.515C18.912 152.611 18.8482 152.739 18.7844 152.835C18.6888 152.962 18.5931 153.09 18.4336 153.154C18.4336 153.154 18.3698 153.154 18.3379 153.186C18.3698 153.186 18.3698 153.186 18.3379 153.186C18.3379 153.186 18.3061 153.186 18.2742 153.218C17.8915 153.441 17.3812 153.058 17.5087 152.643V152.547L17.5406 152.611Z" fill="#E9F1FF"/>
<path d="M6.85678 157.75C6.85678 157.75 7.20759 157.591 7.36705 157.686C7.46273 157.718 7.30327 157.686 7.39895 157.686C7.39895 157.686 7.46273 157.686 7.49462 157.718C7.49462 157.718 7.55841 157.718 7.5903 157.718H7.65408C7.71787 157.718 7.78165 157.75 7.84544 157.782C7.973 157.814 8.10057 157.846 8.22814 157.846C8.32382 157.846 8.45138 157.846 8.54706 157.878C8.48328 157.878 8.41949 157.878 8.35571 157.878C8.57895 157.878 8.83409 157.878 9.05733 157.942C8.99355 157.942 8.92976 157.942 8.86598 157.942C8.99355 157.942 9.12112 157.942 9.24868 157.942C9.5676 157.942 9.85463 158.197 9.88652 158.516C9.91842 158.835 9.72706 159.123 9.40814 159.219C9.21679 159.282 8.96166 159.346 8.73841 159.346C8.51517 159.346 8.26003 159.282 8.03679 159.25C7.84544 159.187 7.62219 159.091 7.43084 158.963C7.36705 158.931 7.27138 158.867 7.20759 158.804C7.08003 158.708 7.01624 158.644 6.95246 158.516C6.88867 158.421 6.793 158.325 6.72921 158.261C6.63354 158.101 6.66543 157.846 6.793 157.75H6.85678Z" fill="#E9F1FF"/>
</g>
<defs>
<clipPath id="clip0_150_312">
<rect width="267" height="250" fill="white"/>
</clipPath>
</defs>
</svg>
