<svg width="249" height="250" viewBox="0 0 249 250" fill="none" xmlns="http://www.w3.org/2000/svg">
<g clip-path="url(#clip0_150_356)">
<path d="M117.543 39.8764C185.421 35.0916 231.963 106.49 198.842 166.613C168.579 221.558 90.3199 225.298 54.6063 173.774C17.4264 120.151 52.5874 44.448 117.543 39.8657V39.8764ZM129.126 59.2178C125.885 59.5375 122.984 62.0098 122.771 65.3666L122.708 125.575L81.171 149.787C76.9632 155.712 82.9455 165.761 90.1605 160.955L136.734 134.037L136.925 64.0984C136.043 60.699 132.505 58.8874 129.136 59.2178H129.126Z" fill="white"/>
<path d="M25.3321 132.321C26.8728 150.725 33.2483 168.596 44.0548 183.504C76.1237 227.749 138.083 237.98 182.595 205.861C206.28 188.768 221.401 161.616 223.675 132.321H249.007C248.316 137.223 247.997 142.157 247.158 147.038C237.286 203.932 187.908 247.304 130.326 249.872C68.1756 252.654 12.5279 208.483 1.87014 147.038C1.02007 142.157 0.711922 137.212 0.0212402 132.321H25.3533H25.3321Z" fill="#7C7C7C"/>
<path d="M248.996 117.679H223.664C221.401 88.2992 206.333 61.2745 182.584 44.1389C138.083 12.0204 76.1131 22.2506 44.0442 66.4961C33.2165 81.4365 26.8622 99.2434 25.3214 117.679H0C0.690681 112.777 1.00946 107.843 1.8489 102.962C11.7203 46.0997 61.1306 2.69605 118.68 0.127852C180.863 -2.65348 236.479 41.4855 247.136 102.962C247.987 107.843 248.295 112.788 248.985 117.679H248.996Z" fill="#7C7C7C"/>
<path d="M129.126 59.2179C132.494 58.8876 136.043 60.6992 136.914 64.0986L136.723 134.037L90.1498 160.955C82.9349 165.761 76.9525 155.712 81.1604 149.787L122.697 125.576L122.761 65.3667C122.973 61.9992 125.874 59.5376 129.115 59.2179H129.126Z" fill="black"/>
</g>
<defs>
<clipPath id="clip0_150_356">
<rect width="248.996" height="250" fill="white"/>
</clipPath>
</defs>
</svg>
