<svg width="165" height="223" viewBox="0 0 165 223" fill="none" xmlns="http://www.w3.org/2000/svg">
<path d="M25.1531 168.28C25.5578 165.206 29.4031 164.603 33.8266 164.081C38.2501 163.56 35.2722 173.302 35.2722 173.631C35.2722 173.96 24.6038 172.671 25.1531 168.28Z" fill="#1D0F16"/>
<path d="M49.6704 155.409C50.0752 152.336 53.9204 151.732 58.344 151.211C62.7675 150.689 59.7895 160.431 59.7895 160.761C59.7895 161.09 49.1211 159.8 49.6704 155.409Z" fill="#1D0F16"/>
<path d="M90.6385 68.033C91.2167 62.1329 86.8799 50.2778 85.0874 46.3261C83.1214 41.9353 78.9292 31.6444 75.6911 26.842C72.0193 21.4359 66.8441 22.3963 66.8441 22.3963C66.8441 22.3963 59.5294 39.5753 64.6757 47.1494C69.822 54.7235 74.072 64.8223 75.2863 66.2218C74.8526 74.5643 73.2336 74.0978 72.5108 83.6752C71.6145 95.3656 74.1587 105.519 74.1587 105.519C74.1587 105.519 82.8901 108.785 82.6588 107.166C82.4275 105.547 89.8289 76.1285 90.6385 68.033Z" fill="#E9F1FF"/>
<path d="M30.0971 93.0603C30.9066 88.5323 34.4339 84.6629 39.0019 83.181C41.9509 82.2205 44.3217 82.9066 47.2418 83.2359C47.9646 83.4554 48.7163 83.675 49.4391 83.8945C52.7061 84.3061 55.5684 83.7024 58.0837 82.0284C59.0089 81.9461 59.1245 81.8638 60.4545 81.9186C61.611 81.9735 61.9579 83.1536 61.5242 83.8671C66.9886 91.8802 71.4988 100.332 75.2573 109.196C77.4546 114.356 81.589 120.859 81.7914 126.814C81.8781 129.229 80.288 131.452 77.9461 136.611C73.7828 145.75 75.4597 148.302 72.7131 158.044C71.3832 162.764 67.7981 167.347 67.4222 169.46C69.2148 171.134 67.1909 175.442 65.7164 177.034C63.5191 179.394 49.5837 169.158 52.3592 165.453C51.0871 161.309 51.5786 154.284 52.2724 150.332C52.8796 146.82 57.7946 135.404 60.5123 132.358C56.5514 125.031 50.4221 118.033 50.7401 109.581C40.1295 111.392 28.0443 104.696 30.0971 93.0328V93.0603Z" fill="#7A6557"/>
<path d="M49.6704 156.013C49.6704 156.013 55.6552 159.992 63.8083 159.965C70.6026 159.965 73.2624 156.013 73.2624 156.013C73.2624 156.013 69.8798 173.412 69.2726 177.199C68.6655 180.986 70.4869 182.577 72.8288 184.114C75.1706 185.651 81.3578 188.779 81.7625 193.17C82.1673 197.561 80.0278 199.454 73.8407 201.019C70.458 201.869 66.6416 199.811 63.6637 197.424C60.4256 194.844 56.9562 190.481 56.9273 188.889C52.0701 187.215 52.0123 184.608 53.9494 177.555C51.3473 168.692 49.4969 159.306 49.6993 156.041L49.6704 156.013Z" fill="#2E3049"/>
<path d="M19.1107 94.7891C20.007 89.7671 22.4067 85.6233 25.3557 81.26C30.0972 87.8187 51.0872 85.1843 54.1229 84.855C56.3202 90.069 59.009 98.9878 53.1977 106.342C53.7181 109.635 54.2386 112.929 55.0192 116.057C57.1587 124.646 58.7199 129.037 60.31 138.285C60.9172 141.77 60.2522 144.652 56.2913 150.881C54.4988 153.708 47.6467 168.197 43.5123 178.68C44.5242 180.931 46.7504 187.215 42.9919 189.603C39.0599 192.072 32.468 189.849 29.837 187.929C29.3359 186.794 28.4878 183.355 27.2928 177.61C26.8013 175.195 25.2978 171.271 25.6737 169.24C29.2588 150.195 34.9255 147.067 39.0309 142.237C36.1109 140.206 32.9306 134.608 30.7911 130.793C26.7723 123.713 24.4594 118.197 24.7485 111.913C20.9611 109.004 17.2893 104.723 19.0818 94.7617L19.1107 94.7891Z" fill="#8B786A"/>
<path d="M67.0463 30.0528C54.1517 26.1834 40.274 28.0769 32.9882 39.8771C30.9355 43.1977 29.4031 45.8047 28.3912 49.5917C27.5239 52.9123 27.9576 61.0901 27.8708 66.606C27.6973 70.0363 27.5528 74.0429 26.4541 76.8146C24.1412 77.4732 23.3317 78.1592 23.7943 81.9463C22.2619 82.6598 21.0187 84.4161 21.4235 85.8157C22.3487 89.0539 27.6684 92.4567 30.8776 93.1153C37.4117 94.46 49.0054 96.4908 56.5513 92.4293C62.5072 89.246 67.4222 88.505 63.2589 83.4556C64.9647 81.9463 65.0803 80.2998 63.1721 77.7202C63.548 76.3755 64.0395 75.0857 64.5599 73.8508C66.0344 72.561 67.6535 68.3349 67.9137 67.1823C75.1705 63.8343 77.9461 56.2602 78.293 50.0308C78.6978 42.7311 76.7896 28.9002 67.0463 30.1077V30.0528Z" fill="white"/>
<path d="M70.6893 25.7717C70.6893 25.7717 72.395 31.0406 72.5107 37.2426C72.6263 43.4446 67.7692 48.494 67.7692 48.494C67.7692 48.494 61.3796 48.1372 56.8405 42.0176C52.9374 39.7124 51.3472 34.9649 49.8149 31.9737L48.3115 28.9824L43.57 30.5466C43.57 30.5466 41.9509 25.4424 45.5938 22.3414C49.2656 19.2404 53.7758 19.1306 58.9511 19.405C64.1263 19.6795 69.7641 22.2042 70.6603 25.7717H70.6893Z" fill="#E9F1FF"/>
<path d="M58.5463 20.6675C58.5463 20.6675 65.3984 27.9946 67.2488 32.3854C67.509 32.9891 67.7114 33.5105 67.9137 34.0319C68.1161 35.7059 68.2318 37.3799 67.827 39.1362C67.509 40.5632 66.9307 41.8804 66.3525 43.1977C64.56 40.3437 61.2351 38.2855 58.2283 36.392C58.0259 32.8793 56.8116 29.01 54.3252 27.336C56.5225 24.6741 58.5174 20.6675 58.5174 20.6675H58.5463Z" fill="#FFB9A4"/>
<path d="M79.0736 20.7772C79.6229 17.4018 79.7386 13.0659 77.5123 10.1845C75.315 7.33045 70.7759 6.23276 67.2487 5.82112C61.7843 5.1625 56.8115 10.1021 56.4067 16.8255C56.0309 23.0275 58.3438 33.1263 65.167 35.7059C68.6364 37.0231 71.9902 34.9924 74.3031 32.0011C77.0787 28.4611 78.5821 23.5763 79.0158 20.7772H79.0736Z" fill="#FFC9B6"/>
<path d="M79.1605 9.47083C79.1605 9.47083 81.9649 11.6388 84.5381 12.0779C87.9786 12.6541 89.1351 9.71781 89.1351 9.71781C89.1351 9.71781 85.2609 7.60475 82.6299 7.33033C80.0279 7.0559 79.1316 9.47083 79.1316 9.47083H79.1605Z" fill="#8B786A"/>
<path d="M52.9375 12.4347C53.7759 7.7969 57.1586 2.33586 62.7097 1.45771C65.7454 0.963746 72.7421 -0.573026 75.1996 2.14377C76.8476 5.24476 77.5414 7.13828 81.9649 8.92203C85.0874 7.93411 87.9497 12.2151 85.9837 15.371C83.0925 20.0088 75.6622 19.2129 71.7591 16.304C70.2846 20.2832 65.2828 22.9451 60.8304 22.2041C59.4137 24.2074 57.1008 26.6498 54.2385 26.6224C54.3542 22.3688 51.9545 17.045 52.9086 12.4621L52.9375 12.4347Z" fill="#22253A"/>
<path d="M62.6518 22.3139C62.6518 22.3139 61.3219 19.5971 59.0668 21.079C56.8117 22.5609 60.8593 27.0889 60.8593 27.0889L62.6518 22.3139Z" fill="#FFC9B6"/>
<path d="M59.3559 84.6355C59.3559 84.6355 50.4511 90.1789 44.9 89.8496C39.3489 89.5202 37.2095 87.2425 37.2095 87.2425C37.2095 87.2425 42.2112 87.8737 47.3575 87.2425C51.8678 86.6937 56.378 84.8825 59.3559 84.6355Z" fill="#E9F1FF"/>
<path d="M29.8657 78.3237C29.8657 78.3237 34.8964 80.1898 38.626 81.2875C42.3556 82.3578 47.2417 83.2634 47.2417 83.2634C47.2417 83.2634 41.2859 84.5806 37.2093 82.7145C33.1328 80.8759 29.8657 78.3237 29.8657 78.3237Z" fill="#DD9864"/>
<path d="M160.461 222.835L4.85718 37.4622L8.64463 34.9924L164.161 220.146L160.461 222.835Z" fill="#FF9D00"/>
<path d="M6.2738 35.5137C5.20406 36.1724 4.568 37.0505 4.85712 37.4621C5.14624 37.8738 6.24488 37.7091 7.34353 37.0505C8.41327 36.3919 9.04933 35.5137 8.76021 35.1021C8.47109 34.6905 7.37245 34.8551 6.2738 35.5137Z" fill="#FF9D00"/>
<path d="M31.5426 32.9891C43.6277 31.3425 48.2536 33.3458 49.1788 43.5544C49.5836 48.1098 47.5886 58.291 37.9899 58.4282C33.9133 58.4831 27.813 55.7114 21.2211 51.5676C24.7772 56.2053 33.5086 70.0637 33.5086 70.0637C33.5086 70.0637 30.6463 74.9485 26.1939 76.0462C24.2279 74.9485 16.0748 69.954 10.9285 65.2064C8.5866 63.0385 0.578027 54.2295 0.057614 46.7377C-0.404975 39.7125 2.91988 39.438 7.51686 37.2975C12.403 35.0198 17.2891 34.9375 31.5426 32.9891Z" fill="#E9F1FF"/>
<path d="M47.0106 88.5873C43.3098 83.2909 44.1483 87.1877 43.2231 82.742C43.2231 82.742 45.1024 81.5346 46.866 82.2481C46.6636 78.7629 46.0565 78.2689 41.0258 74.427C40.303 73.8782 38.3081 72.2316 36.1397 70.9144C35.0989 70.2832 32.2366 64.9319 31.2247 64.5752C26.541 65.4808 20.7008 73.6312 20.5273 73.7958C21.4525 75.3326 26.7145 78.1317 27.4084 79.1745C29.49 82.3579 30.7332 83.8672 33.1329 87.1603C35.7928 90.8101 38.3948 92.0725 40.7078 90.9748C42.1245 91.6883 44.4374 91.551 44.8133 90.7278C45.9119 89.9594 47.9936 89.9319 47.0395 88.5873H47.0106Z" fill="#2E3049"/>
<path d="M72.2216 95.6674C72.2216 95.6674 72.106 101.43 72.6264 105.327C71.9614 106.617 71.3253 109.471 71.1808 111.364C70.8338 116.139 75.7489 116.441 75.7489 116.441L74.4767 119.487C74.4767 119.487 73.0601 118.28 70.4002 119.954C67.7403 121.628 69.5039 122.094 73.089 122.808C76.7029 123.521 78.4955 121.71 80.2591 118.143C81.589 115.481 82.7744 112.16 82.6299 109.718C82.572 108.895 85.2897 103.159 85.2608 98.8232C80.6928 92.2645 72.2216 95.6674 72.2216 95.6674Z" fill="#2E3049"/>
<path d="M66.9884 117.237C66.3813 114.219 69.9953 111.2 72.1347 109.938C74.2742 108.675 76.7028 113.093 77.3389 115.591C77.9749 118.088 77.0787 122.534 74.679 123.961C72.2793 125.415 71.7878 122.863 71.7878 122.863C67.3643 120.805 67.0174 117.237 67.0174 117.237H66.9884Z" fill="#2E3049"/>
<path d="M25.1531 168.911C25.1531 168.911 31.1378 172.89 39.2909 172.863C46.0852 172.863 47.6465 168.911 47.6465 168.911C47.6465 168.911 45.3335 186.31 44.7264 190.097C44.1192 193.884 45.9407 195.475 48.2825 197.012C50.6244 198.549 56.8115 201.677 57.2163 206.068C57.621 210.459 55.4816 212.352 49.2944 213.917C45.9117 214.767 42.0954 212.709 39.1175 210.322C35.8793 207.742 32.4099 203.379 32.381 201.787C27.5238 200.113 27.466 197.479 29.4031 190.453C26.801 181.59 24.9507 172.204 25.1531 168.939V168.911Z" fill="#2E3049"/>
</svg>
