<svg width="199" height="250" viewBox="0 0 199 250" fill="none" xmlns="http://www.w3.org/2000/svg">
<g clip-path="url(#clip0_150_263)">
<path d="M185.672 209.962C182.318 205.928 178.675 201.784 174.425 198.546C170.348 195.445 165.723 195.143 161.097 197.338C156.124 199.671 151.816 203.677 147.479 206.943C145.282 208.59 142.998 210.538 140.511 212.075C137.36 209.577 133.833 207.108 129.67 206.614C127.819 206.394 126.027 206.559 124.263 206.916C122.499 207.656 120.765 208.48 119.146 209.468C115.792 211.471 112.496 213.172 108.766 214.462C105.759 215.505 102.753 216.548 99.7458 217.591C97.6352 218.332 95.4958 219.072 93.5587 220.17C92.2865 220.884 90.3784 222.091 90.7542 223.738C91.3035 226.098 94.108 227.552 96.2764 228.211C98.8495 229.007 101.567 229.281 104.169 230.022C106.656 230.735 108.882 232.08 110.906 233.617C111.831 234.303 112.698 235.099 113.537 235.895C114.491 236.306 115.387 236.8 116.254 237.404C118.249 238.776 120.186 240.148 122.586 240.093C123.8 240.862 125.044 241.493 126.374 241.877C131.693 243.386 137.158 239.764 141.321 237.075C143.981 235.346 146.467 233.452 148.838 231.394C154.216 228.897 159.593 226.427 165 223.93C169.25 221.954 173.5 220.006 177.75 218.03C180.93 216.548 183.937 215.011 185.961 212.157C186.452 211.443 186.163 210.593 185.672 209.989V209.962Z" fill="white"/>
<path d="M185.672 209.961C183.792 207.684 181.769 205.406 179.658 203.238C176.564 209.879 167.631 213.611 160.316 213.501C156.702 213.447 152.886 212.349 150.631 209.522C149.734 208.397 149.185 207.135 148.925 205.818C148.433 206.202 147.942 206.586 147.479 206.943C145.542 208.397 143.489 210.099 141.321 211.526C143.576 213.447 145.629 215.916 145.744 218.88C145.86 221.597 144.01 223.518 141.841 225.055C139.153 226.948 136.03 228.32 132.908 229.418C130.045 230.406 127.299 231.174 124.234 230.516C120.476 229.72 117.353 227.442 113.913 225.933C108.882 223.71 102.984 224.286 97.9533 221.954C96.7968 221.432 95.5536 220.637 94.9175 219.539C94.4549 219.758 93.9923 219.923 93.5587 220.17C92.2865 220.883 90.3784 222.091 90.7542 223.737C91.3035 226.098 94.108 227.552 96.2764 228.211C98.8495 229.006 101.567 229.281 104.169 230.022C106.656 230.735 108.882 232.08 110.906 233.617C112.409 234.742 113.768 236.087 115.04 237.459C115.127 237.514 115.185 237.568 115.271 237.623C117.266 238.995 119.521 241.987 126.027 243.139C131.462 244.1 137.158 239.764 141.35 237.074C144.01 235.346 146.496 233.452 148.867 231.394C154.245 228.897 159.622 226.427 165.029 223.93C169.279 221.954 173.529 220.005 177.779 218.029C180.959 216.548 183.966 215.011 185.99 212.157C186.481 211.443 186.192 210.593 185.701 209.989L185.672 209.961Z" fill="#E9F1FF"/>
<path d="M25.1531 170.28C25.5578 167.206 29.4031 166.603 33.8266 166.081C38.2501 165.56 35.2722 175.302 35.2722 175.631C35.2722 175.96 24.6038 174.671 25.1531 170.28Z" fill="#1D0F16"/>
<path d="M49.6704 157.409C50.0752 154.336 53.9204 153.732 58.344 153.211C62.7675 152.689 59.7895 162.431 59.7895 162.761C59.7895 163.09 49.1211 161.8 49.6704 157.409Z" fill="#1D0F16"/>
<path d="M90.6385 70.033C91.2167 64.1329 86.8799 52.2778 85.0874 48.3261C83.1214 43.9353 78.9292 33.6444 75.6911 28.842C72.0193 23.4359 66.8441 24.3963 66.8441 24.3963C66.8441 24.3963 59.5294 41.5753 64.6757 49.1494C69.822 56.7235 74.072 66.8223 75.2863 68.2218C74.8526 76.5643 73.2336 76.0978 72.5108 85.6752C71.6145 97.3656 74.1587 107.519 74.1587 107.519C74.1587 107.519 82.8901 110.785 82.6588 109.166C82.4275 107.547 89.8289 78.1285 90.6385 70.033Z" fill="#E9F1FF"/>
<path d="M30.0971 95.0603C30.9066 90.5323 34.4339 86.6629 39.0019 85.181C41.9509 84.2205 44.3217 84.9066 47.2418 85.2359C47.9646 85.4554 48.7163 85.675 49.4391 85.8945C52.7061 86.3061 55.5684 85.7024 58.0837 84.0284C59.0089 83.9461 59.1245 83.8638 60.4545 83.9186C61.611 83.9735 61.9579 85.1536 61.5242 85.8671C66.9886 93.8802 71.4988 102.332 75.2573 111.196C77.4546 116.356 81.589 122.859 81.7914 128.814C81.8781 131.229 80.288 133.452 77.9461 138.611C73.7828 147.75 75.4597 150.302 72.7131 160.044C71.3832 164.764 67.7981 169.347 67.4222 171.46C69.2148 173.134 67.1909 177.442 65.7164 179.034C63.5191 181.394 49.5837 171.158 52.3592 167.453C51.0871 163.309 51.5786 156.284 52.2724 152.332C52.8796 148.82 57.7946 137.404 60.5123 134.358C56.5514 127.031 50.4221 120.033 50.7401 111.581C40.1295 113.392 28.0443 106.696 30.0971 95.0328V95.0603Z" fill="#7A6557"/>
<path d="M49.6704 158.013C49.6704 158.013 55.6552 161.992 63.8083 161.965C70.6026 161.965 73.2624 158.013 73.2624 158.013C73.2624 158.013 69.8798 175.412 69.2726 179.199C68.6655 182.986 70.4869 184.577 72.8288 186.114C75.1706 187.651 81.3578 190.779 81.7625 195.17C82.1673 199.561 80.0278 201.454 73.8407 203.019C70.458 203.869 66.6416 201.811 63.6637 199.424C60.4256 196.844 56.9562 192.481 56.9273 190.889C52.0701 189.215 52.0123 186.608 53.9494 179.555C51.3473 170.692 49.4969 161.306 49.6993 158.041L49.6704 158.013Z" fill="#2E3049"/>
<path d="M19.1107 96.7891C20.007 91.7671 22.4067 87.6233 25.3557 83.26C30.0972 89.8187 51.0872 87.1843 54.1229 86.855C56.3202 92.069 59.009 100.988 53.1977 108.342C53.7181 111.635 54.2386 114.929 55.0192 118.057C57.1587 126.646 58.7199 131.037 60.31 140.285C60.9172 143.77 60.2522 146.652 56.2913 152.881C54.4988 155.708 47.6467 170.197 43.5123 180.68C44.5242 182.931 46.7504 189.215 42.9919 191.603C39.0599 194.072 32.468 191.849 29.837 189.929C29.3359 188.794 28.4878 185.355 27.2928 179.61C26.8013 177.195 25.2978 173.271 25.6737 171.24C29.2588 152.195 34.9255 149.067 39.0309 144.237C36.1109 142.206 32.9306 136.608 30.7911 132.793C26.7723 125.713 24.4594 120.197 24.7485 113.913C20.9611 111.004 17.2893 106.723 19.0818 96.7617L19.1107 96.7891Z" fill="#8B786A"/>
<path d="M67.0463 32.0528C54.1517 28.1834 40.274 30.0769 32.9882 41.8771C30.9355 45.1977 29.4031 47.8047 28.3912 51.5917C27.5239 54.9123 27.9576 63.0901 27.8708 68.606C27.6973 72.0363 27.5528 76.0429 26.4541 78.8146C24.1412 79.4732 23.3317 80.1592 23.7943 83.9463C22.2619 84.6598 21.0187 86.4161 21.4235 87.8157C22.3487 91.0539 27.6684 94.4567 30.8776 95.1153C37.4117 96.46 49.0054 98.4908 56.5513 94.4293C62.5072 91.246 67.4222 90.505 63.2589 85.4556C64.9647 83.9463 65.0803 82.2998 63.1721 79.7202C63.548 78.3755 64.0395 77.0857 64.5599 75.8508C66.0344 74.561 67.6535 70.3349 67.9137 69.1823C75.1705 65.8343 77.9461 58.2602 78.293 52.0308C78.6978 44.7311 76.7896 30.9002 67.0463 32.1077V32.0528Z" fill="white"/>
<path d="M70.6893 27.7717C70.6893 27.7717 72.3951 33.0406 72.5107 39.2426C72.6263 45.4446 67.7692 50.494 67.7692 50.494C67.7692 50.494 61.3796 50.1372 56.8405 44.0176C52.9374 41.7124 51.3472 36.9649 49.8149 33.9737L48.3115 30.9824L43.57 32.5466C43.57 32.5466 41.9509 27.4424 45.5938 24.3414C49.2656 21.2404 53.7758 21.1306 58.9511 21.405C64.1263 21.6795 69.7641 24.2042 70.6603 27.7717H70.6893Z" fill="#E9F1FF"/>
<path d="M58.5463 22.6675C58.5463 22.6675 65.3984 29.9946 67.2488 34.3854C67.509 34.9891 67.7114 35.5105 67.9137 36.0319C68.1161 37.7059 68.2318 39.3799 67.827 41.1362C67.509 42.5632 66.9307 43.8804 66.3525 45.1977C64.56 42.3437 61.2351 40.2855 58.2283 38.392C58.0259 34.8793 56.8116 31.01 54.3252 29.336C56.5225 26.6741 58.5174 22.6675 58.5174 22.6675H58.5463Z" fill="#FFB9A4"/>
<path d="M79.0736 22.7772C79.6229 19.4018 79.7386 15.0659 77.5123 12.1845C75.315 9.33045 70.7759 8.23276 67.2487 7.82112C61.7843 7.1625 56.8115 12.1021 56.4067 18.8255C56.0309 25.0275 58.3438 35.1263 65.167 37.7059C68.6364 39.0231 71.9902 36.9924 74.3031 34.0011C77.0787 30.4611 78.5821 25.5763 79.0158 22.7772H79.0736Z" fill="#FFC9B6"/>
<path d="M79.1605 11.4708C79.1605 11.4708 81.9649 13.6388 84.5381 14.0779C87.9786 14.6541 89.1351 11.7178 89.1351 11.7178C89.1351 11.7178 85.2609 9.60475 82.6299 9.33033C80.0279 9.0559 79.1316 11.4708 79.1316 11.4708H79.1605Z" fill="#8B786A"/>
<path d="M52.9375 14.4347C53.7759 9.7969 57.1586 4.33586 62.7097 3.45771C65.7454 2.96375 72.7421 1.42697 75.1996 4.14377C76.8476 7.24476 77.5414 9.13828 81.9649 10.922C85.0874 9.93411 87.9497 14.2151 85.9837 17.371C83.0925 22.0088 75.6622 21.2129 71.7591 18.304C70.2846 22.2832 65.2828 24.9451 60.8304 24.2041C59.4137 26.2074 57.1008 28.6498 54.2385 28.6224C54.3542 24.3688 51.9545 19.045 52.9086 14.4621L52.9375 14.4347Z" fill="#22253A"/>
<path d="M62.6518 24.3139C62.6518 24.3139 61.3219 21.5971 59.0668 23.079C56.8117 24.5609 60.8593 29.0889 60.8593 29.0889L62.6518 24.3139Z" fill="#FFC9B6"/>
<path d="M59.3559 86.6355C59.3559 86.6355 50.4511 92.1789 44.9 91.8496C39.3489 91.5202 37.2095 89.2425 37.2095 89.2425C37.2095 89.2425 42.2112 89.8737 47.3575 89.2425C51.8678 88.6937 56.378 86.8825 59.3559 86.6355Z" fill="#E9F1FF"/>
<path d="M29.8657 80.3237C29.8657 80.3237 34.8964 82.1898 38.626 83.2875C42.3556 84.3578 47.2417 85.2634 47.2417 85.2634C47.2417 85.2634 41.2859 86.5806 37.2093 84.7145C33.1328 82.8759 29.8657 80.3237 29.8657 80.3237Z" fill="#DD9864"/>
<path d="M160.461 224.835L4.85718 39.4622L8.64462 36.9924L164.161 222.146L160.461 224.835Z" fill="#FF9D00"/>
<path d="M6.2738 37.5137C5.20406 38.1724 4.568 39.0505 4.85712 39.4621C5.14624 39.8738 6.24488 39.7091 7.34353 39.0505C8.41327 38.3919 9.04933 37.5137 8.76021 37.1021C8.47109 36.6905 7.37245 36.8551 6.2738 37.5137Z" fill="#FF9D00"/>
<path d="M31.5426 34.9891C43.6277 33.3425 48.2536 35.3458 49.1788 45.5544C49.5835 50.1098 47.5886 60.291 37.9899 60.4282C33.9133 60.4831 27.813 57.7114 21.2211 53.5676C24.7772 58.2053 33.5086 72.0637 33.5086 72.0637C33.5086 72.0637 30.6463 76.9485 26.1939 78.0462C24.2279 76.9485 16.0748 71.954 10.9285 67.2064C8.5866 65.0385 0.578027 56.2295 0.057614 48.7377C-0.404975 41.7125 2.91988 41.438 7.51686 39.2975C12.403 37.0198 17.2891 36.9375 31.5426 34.9891Z" fill="#E9F1FF"/>
<path d="M47.0106 90.5873C43.3098 85.2909 44.1483 89.1877 43.2231 84.742C43.2231 84.742 45.1024 83.5346 46.866 84.2481C46.6636 80.7629 46.0565 80.2689 41.0258 76.427C40.303 75.8782 38.3081 74.2316 36.1397 72.9144C35.0989 72.2832 32.2366 66.9319 31.2247 66.5752C26.541 67.4808 20.7008 75.6312 20.5273 75.7958C21.4525 77.3326 26.7145 80.1317 27.4084 81.1745C29.49 84.3579 30.7332 85.8672 33.1329 89.1603C35.7928 92.8101 38.3948 94.0725 40.7078 92.9748C42.1245 93.6883 44.4374 93.551 44.8133 92.7278C45.9119 91.9594 47.9936 91.9319 47.0395 90.5873H47.0106Z" fill="#2E3049"/>
<path d="M72.2216 97.6674C72.2216 97.6674 72.106 103.43 72.6264 107.327C71.9614 108.617 71.3253 111.471 71.1808 113.364C70.8338 118.139 75.7489 118.441 75.7489 118.441L74.4767 121.487C74.4767 121.487 73.0601 120.28 70.4002 121.954C67.7403 123.628 69.5039 124.094 73.089 124.808C76.7029 125.521 78.4955 123.71 80.2591 120.143C81.589 117.481 82.7744 114.16 82.6299 111.718C82.572 110.895 85.2897 105.159 85.2608 100.823C80.6928 94.2645 72.2216 97.6674 72.2216 97.6674Z" fill="#2E3049"/>
<path d="M66.9884 119.237C66.3813 116.219 69.9953 113.2 72.1347 111.938C74.2742 110.675 76.7028 115.093 77.3389 117.591C77.9749 120.088 77.0787 124.534 74.679 125.961C72.2793 127.415 71.7878 124.863 71.7878 124.863C67.3643 122.805 67.0174 119.237 67.0174 119.237H66.9884Z" fill="#2E3049"/>
<path d="M25.1531 170.911C25.1531 170.911 31.1378 174.89 39.2909 174.863C46.0852 174.863 47.6465 170.911 47.6465 170.911C47.6465 170.911 45.3335 188.31 44.7264 192.097C44.1192 195.884 45.9407 197.475 48.2825 199.012C50.6244 200.549 56.8115 203.677 57.2163 208.068C57.621 212.459 55.4816 214.352 49.2944 215.917C45.9117 216.767 42.0954 214.709 39.1175 212.322C35.8793 209.742 32.4099 205.379 32.381 203.787C27.5238 202.113 27.466 199.479 29.4031 192.453C26.801 183.59 24.9507 174.204 25.1531 170.939V170.911Z" fill="#2E3049"/>
<path d="M52.793 18.2764C57.7659 12.2117 71.6435 7.18971 80.2882 9.76929C80.2882 9.68696 80.2593 9.60464 80.2303 9.52231C77.3681 1.48169 72.8 -1.2351 61.8713 0.466327C50.9427 2.16775 51.3764 10.9219 51.6366 12.047C51.6944 12.3214 51.81 16.2182 52.793 18.2764Z" fill="#8B786A"/>
<path d="M59.9054 12.9527C59.9054 12.9527 63.953 8.9461 71.6436 7.54654C81.3001 5.81767 89.1063 11.6903 89.1063 11.6903C89.1063 11.6903 82.5144 11.1689 79.2185 13.282C75.9225 15.3951 73.8409 17.2063 68.7235 16.0811C62.6231 14.7364 59.8765 12.9527 59.8765 12.9527H59.9054Z" fill="#7A6557"/>
<path d="M192.119 214.215L129.351 248.628L133.572 236.224L196.34 201.811L192.119 214.215Z" fill="#22253A"/>
<path d="M194.779 215.614L132.011 250L136.232 237.596L199 203.183L194.779 215.614Z" fill="#2E3049"/>
<path d="M199 203.183L196.34 201.811L133.573 236.224L136.232 237.596L199 203.183Z" fill="#464A66"/>
<path d="M132.011 250L129.351 248.628L133.572 236.224L136.232 237.596L132.011 250Z" fill="#22253A"/>
<path d="M110.588 217.481C110.328 217.536 110.038 217.618 109.807 217.728C109.576 217.837 109.345 218.057 109.171 218.249C109.084 218.359 108.969 218.496 108.911 218.633C108.853 218.77 108.766 218.935 108.737 219.1C108.651 219.429 108.651 219.758 108.766 220.06C108.853 220.252 108.998 220.417 109.229 220.39C109.431 220.39 109.663 220.252 109.691 220.06C109.72 219.923 109.778 219.786 109.778 219.649C109.778 219.594 109.807 219.511 109.778 219.649C109.778 219.649 109.778 219.594 109.778 219.566C109.778 219.511 109.778 219.457 109.807 219.402C109.865 219.182 109.923 218.963 110.009 218.771C110.009 218.771 110.009 218.716 110.038 218.716C110.038 218.661 110.096 218.606 110.125 218.578C110.183 218.496 110.241 218.386 110.299 218.304C110.328 218.249 110.356 218.222 110.385 218.167C110.385 218.167 110.443 218.084 110.385 218.139C110.385 218.139 110.414 218.084 110.443 218.084C110.501 218.002 110.588 217.92 110.674 217.865C110.877 217.728 110.761 217.481 110.501 217.508L110.588 217.481Z" fill="#E9F1FF"/>
<path d="M115.821 221.817C115.618 221.762 115.387 221.817 115.185 221.817C115.069 221.817 114.982 221.844 114.867 221.872C114.751 221.872 114.838 221.872 114.867 221.872H114.809C114.751 221.872 114.693 221.872 114.606 221.872C114.491 221.872 114.375 221.872 114.259 221.872C114.259 221.872 114.202 221.872 114.173 221.872C114.028 221.872 113.97 221.872 113.855 221.927C113.913 221.927 113.941 221.927 113.999 221.899C113.941 221.899 113.855 221.899 113.797 221.899C113.681 221.899 113.595 221.981 113.566 222.064C113.537 222.173 113.566 222.256 113.681 222.311C113.681 222.311 113.739 222.338 113.768 222.366C113.797 222.42 113.826 222.448 113.884 222.475C113.884 222.475 113.941 222.503 113.97 222.503C114.057 222.53 114.144 222.585 114.259 222.613C114.404 222.667 114.578 222.722 114.722 222.75C114.896 222.805 115.098 222.832 115.3 222.832C115.532 222.832 115.792 222.832 115.965 222.695C116.139 222.585 116.225 222.42 116.197 222.201C116.197 222.009 116.023 221.844 115.821 221.789V221.817Z" fill="#E9F1FF"/>
<path d="M125.391 216.932C125.391 216.932 125.275 216.767 125.217 216.685C125.217 216.685 125.217 216.657 125.188 216.63C125.188 216.603 125.13 216.575 125.13 216.548C125.072 216.438 125.015 216.356 124.957 216.246C124.957 216.246 124.899 216.191 124.899 216.164C124.899 216.136 124.841 216.081 124.812 216.054C124.754 215.971 124.726 215.889 124.668 215.807C124.668 215.752 124.639 215.724 124.61 215.67C124.61 215.615 124.61 215.56 124.581 215.532C124.581 215.532 124.581 215.477 124.581 215.45V215.395C124.581 215.23 124.523 215.066 124.379 214.956C124.436 215.038 124.465 215.121 124.523 215.203C124.523 215.148 124.494 215.093 124.494 215.038V214.983C124.494 214.791 124.379 214.627 124.176 214.572C123.974 214.517 123.8 214.599 123.685 214.764C123.627 214.846 123.569 214.956 123.54 215.066C123.338 215.313 123.396 215.724 123.453 216.026C123.482 216.273 123.598 216.52 123.714 216.767C123.771 216.85 123.8 216.959 123.858 217.042C123.974 217.206 124.147 217.316 124.321 217.426C124.436 217.481 124.552 217.536 124.668 217.591C124.754 217.618 124.841 217.645 124.928 217.673C125.073 217.673 125.188 217.673 125.333 217.591C125.477 217.536 125.564 217.344 125.564 217.206C125.564 217.124 125.564 217.042 125.506 216.959L125.391 216.932Z" fill="#E9F1FF"/>
<path d="M133.139 213.886C133.139 213.886 133.139 213.666 133.023 213.611C132.936 213.557 132.821 213.584 132.734 213.639C132.734 213.639 132.676 213.666 132.647 213.694C132.734 213.694 132.821 213.694 132.908 213.666C132.676 213.584 132.474 213.804 132.3 213.941C132.3 213.941 132.271 213.941 132.243 213.941C132.214 213.941 132.185 213.968 132.156 213.996C132.098 214.023 132.011 214.051 131.925 214.105C131.982 214.105 132.011 214.078 132.069 214.051C131.838 214.16 131.606 214.298 131.375 214.407C131.317 214.407 131.231 214.462 131.173 214.49C131.231 214.49 131.288 214.435 131.317 214.435C131.231 214.462 131.144 214.49 131.057 214.517C130.913 214.545 130.826 214.627 130.71 214.709C130.681 214.737 130.652 214.764 130.624 214.791C130.479 214.929 130.421 215.121 130.479 215.285C130.537 215.478 130.681 215.587 130.855 215.642C131.028 215.697 131.231 215.725 131.433 215.67C131.578 215.615 131.722 215.587 131.867 215.505C132.098 215.395 132.3 215.258 132.503 215.093C132.705 214.929 132.821 214.737 132.936 214.545C133.023 214.38 133.197 214.133 133.168 213.913C133.168 213.886 133.168 213.858 133.168 213.831L133.139 213.886Z" fill="#E9F1FF"/>
<path d="M124.061 210.51C123.743 210.401 123.338 210.51 123.02 210.565C122.702 210.62 122.384 210.812 122.124 210.977C121.574 211.306 121.141 211.745 120.765 212.267C120.591 212.486 120.938 212.816 121.169 212.651C121.632 212.322 122.124 212.075 122.644 211.855C122.673 211.855 122.702 211.855 122.731 211.828C122.673 211.828 122.702 211.828 122.731 211.828C122.788 211.828 122.875 211.773 122.933 211.745C123.107 211.69 123.28 211.635 123.425 211.553C123.482 211.526 123.54 211.498 123.627 211.471C123.656 211.471 123.685 211.443 123.743 211.416C123.685 211.416 123.829 211.389 123.743 211.416C123.8 211.416 123.887 211.361 123.945 211.334C124.061 211.279 124.147 211.224 124.234 211.142C124.494 210.949 124.321 210.593 124.061 210.51Z" fill="#E9F1FF"/>
<path d="M133.602 223.244C133.428 223.244 133.284 223.299 133.11 223.353C133.023 223.353 132.966 223.408 132.879 223.408C132.85 223.408 132.821 223.408 132.763 223.408C132.561 223.408 132.387 223.463 132.185 223.491C132.156 223.491 132.127 223.491 132.069 223.491C131.983 223.491 131.896 223.491 131.838 223.491C131.693 223.491 131.52 223.491 131.375 223.491C131.346 223.491 131.318 223.491 131.26 223.491C131.26 223.491 131.115 223.491 131.231 223.491C131.173 223.491 131.086 223.491 131.028 223.463C130.681 223.381 130.363 223.216 129.988 223.271H130.19C130.19 223.271 130.103 223.271 130.045 223.271C129.756 223.216 129.554 223.463 129.698 223.71C129.785 223.875 129.872 224.012 130.017 224.149C130.161 224.286 130.335 224.369 130.537 224.451C130.942 224.616 131.375 224.753 131.809 224.78C131.983 224.78 132.185 224.78 132.358 224.78C132.619 224.753 132.879 224.726 133.11 224.588C133.255 224.506 133.428 224.424 133.573 224.314C133.659 224.259 133.775 224.177 133.862 224.122C133.977 224.039 134.006 223.902 134.064 223.793C134.18 223.546 133.891 223.271 133.659 223.271L133.602 223.244Z" fill="#E9F1FF"/>
<path d="M163.93 202.744C163.67 202.662 163.381 202.772 163.121 202.854C162.86 202.936 162.6 203.019 162.369 203.156C162.138 203.321 161.964 203.485 161.791 203.677C161.617 203.869 161.415 204.061 161.357 204.308C161.27 204.446 161.212 204.555 161.155 204.693C161.097 204.83 161.097 204.995 161.241 205.104C161.386 205.187 161.559 205.187 161.675 205.104C161.791 204.995 161.906 204.912 161.993 204.83C162.08 204.775 162.166 204.72 162.253 204.665C162.311 204.638 162.34 204.583 162.398 204.555C162.398 204.555 162.456 204.528 162.456 204.501C162.629 204.363 162.831 204.254 163.005 204.144C163.207 204.007 163.381 203.842 163.583 203.677C163.67 203.595 163.757 203.54 163.843 203.485C163.785 203.513 163.901 203.458 163.901 203.43C163.988 203.375 164.046 203.321 164.104 203.238C164.19 203.074 164.104 202.854 163.901 202.799L163.93 202.744Z" fill="#E9F1FF"/>
<path d="M168.7 206.778C168.7 206.778 168.643 206.751 168.614 206.723C168.498 206.668 168.411 206.641 168.267 206.641H168.411C168.411 206.641 168.151 206.613 168.006 206.559C167.949 206.531 167.891 206.504 167.804 206.449C167.833 206.476 167.891 206.504 167.92 206.531C167.862 206.476 167.775 206.421 167.717 206.394C167.688 206.394 167.631 206.367 167.602 206.339C167.428 206.257 167.255 206.174 167.081 206.065C167.139 206.092 167.168 206.12 167.226 206.147C167.168 206.092 167.11 206.065 167.052 206.01C166.995 205.955 166.937 205.927 166.879 205.873C166.705 205.708 166.416 205.68 166.243 205.79C166.04 205.927 165.925 206.147 166.012 206.367C166.04 206.504 166.098 206.641 166.156 206.751C166.214 206.888 166.301 206.998 166.387 207.107C166.445 207.19 166.532 207.272 166.619 207.327C166.734 207.409 166.85 207.519 166.995 207.574C167.197 207.684 167.399 207.684 167.602 207.711C167.688 207.711 167.804 207.711 167.891 207.711C168.035 207.711 168.18 207.711 168.325 207.656C168.498 207.629 168.643 207.547 168.787 207.437C168.989 207.272 168.961 206.86 168.7 206.751V206.778Z" fill="#E9F1FF"/>
<path d="M173.008 201.756C173.008 201.756 172.95 201.592 172.893 201.509C172.835 201.427 172.777 201.372 172.719 201.29C172.661 201.235 172.575 201.18 172.517 201.125C172.488 201.125 172.459 201.098 172.43 201.07C172.343 201.043 172.285 200.988 172.199 200.988C172.112 200.988 172.025 200.96 171.938 200.96C171.91 200.96 171.852 200.96 171.823 200.96C171.765 200.96 171.736 200.96 171.678 200.96C171.62 200.96 171.534 201.015 171.505 201.043C171.476 201.043 171.418 201.098 171.418 201.125C171.36 201.18 171.331 201.235 171.331 201.29C171.331 201.372 171.331 201.482 171.331 201.564C171.36 201.674 171.447 201.784 171.563 201.866C171.563 201.866 171.563 201.839 171.534 201.811C171.534 201.811 171.534 201.811 171.534 201.839C171.534 201.839 171.534 201.839 171.505 201.811C171.505 201.811 171.534 201.839 171.563 201.866C171.563 201.866 171.563 201.893 171.592 201.921V201.976C171.592 202.113 171.62 202.223 171.678 202.333C171.707 202.387 171.765 202.415 171.794 202.47C171.881 202.552 171.996 202.607 172.112 202.662C172.199 202.689 172.314 202.689 172.401 202.662C172.488 202.662 172.603 202.634 172.69 202.58C172.777 202.525 172.835 202.47 172.893 202.387C172.95 202.333 173.008 202.25 173.037 202.14C173.066 202.003 173.066 201.893 173.037 201.756C173.037 201.729 173.037 201.701 173.037 201.647L173.008 201.756Z" fill="#E9F1FF"/>
</g>
<defs>
<clipPath id="clip0_150_263">
<rect width="199" height="250" fill="white"/>
</clipPath>
</defs>
</svg>
